<?xml version="1.0" encoding="UTF-8"?>
<svg id="Layer_2" data-name="Layer 2" xmlns="http://www.w3.org/2000/svg" xmlns:xlink="http://www.w3.org/1999/xlink" viewBox="0 0 204.87 132.48">
  <defs>
    <style>
      .cls-1 {
        fill: url(#linear-gradient-2);
      }

      .cls-2 {
        fill: url(#linear-gradient);
      }
    </style>
    <linearGradient id="linear-gradient" x1="-30.53" y1="18.24" x2="274.7" y2="205.61" gradientUnits="userSpaceOnUse">
      <stop offset="0" stop-color="hsl(212, 14%, 21%)"/>
      <stop offset=".14" stop-color="#f9f9f9"/>
      <stop offset=".3" stop-color="#ebebeb"/>
      <stop offset=".48" stop-color="#d3d3d3"/>
      <stop offset=".68" stop-color="#b1b1b1"/>
      <stop offset=".87" stop-color="#868686"/>
      <stop offset="1" stop-color="hsl(212, 14%, 21%)"/>
    </linearGradient>
    <linearGradient id="linear-gradient-2" x1="61.2" y1="9.47" x2="410.35" y2="223.8" gradientUnits="userSpaceOnUse">
      <stop offset="0" stop-color="#fff"/>
      <stop offset=".14" stop-color="#f9f9f9"/>
      <stop offset=".3" stop-color="#ebebeb"/>
      <stop offset=".48" stop-color="#d3d3d3"/>
      <stop offset=".68" stop-color="#b1b1b1"/>
      <stop offset=".87" stop-color="#868686"/>
      <stop offset="1" stop-color="#666"/>
    </linearGradient>
  </defs>
  <g id="Layer_1-2" data-name="Layer 1">
    <g>
      <path class="cls-2" d="M89.92,79.02c0,9.62-2.91,17.59-8.72,23.91-6.62,7.26-18.25,10.9-34.88,10.9-1.26,0-3.08-.03-5.46-.08h-5.38c-18.65,0-29.75-.39-33.28-1.18-1.47-.31-2.2-1.12-2.2-2.43,0-5.59,.31-14.06,.95-25.4,.63-11.34,.95-19.83,.95-25.48,0-6.06-.3-17.45-.91-34.18-.15-4.29-.43-10.71-.83-19.28l-.08-1.1c-.05-.99,.74-1.59,2.39-1.8,1.64-.21,7.49-.31,17.55-.31,16.12,0,25.55,.05,28.28,.16,12.43,.47,21.61,2.56,27.52,6.27,7.83,4.97,11.75,13.35,11.75,25.16,0,3.08-.91,6.35-2.73,9.8-1.31,2.46-3.03,4.91-5.16,7.37-1.87,2.14-2.81,3.14-2.81,2.98,0,.37,.66,.94,1.97,1.72,3.54,2.09,6.32,5.41,8.34,9.96,1.82,4.08,2.73,8.41,2.73,13.01ZM57.32,34.88c0-4.49-2.17-7.47-6.52-8.94-2.43-.78-6.42-1.18-11.98-1.18s-8.19,.42-8.19,1.25c0,.99-.09,2.5-.27,4.51-.18,2.01-.27,3.51-.27,4.51,0,5.23,.43,8.15,1.29,8.78,.56,.47,3.77,.71,9.63,.71,10.87,0,16.3-3.21,16.3-9.64Zm2.27,43.82c0-4.7-1.9-7.89-5.69-9.56-2.43-1.04-6.37-1.57-11.83-1.57-6.52,0-10.06,.25-10.61,.75-.56,.5-.83,3.7-.83,9.6s.33,9.58,.99,10.23c.66,.65,4.3,.98,10.92,.98,5.46,0,9.3-.44,11.52-1.33,3.69-1.51,5.53-4.55,5.53-9.09Z"/>
      <path class="cls-1" d="M204.87,58.01c0,13.9-3.67,25.87-10.99,35.9-7.48,10.3-17.69,16.88-30.63,19.75,2.53,5.33,6.29,10.22,11.3,14.66,.45,.37,.68,.71,.68,1.02,0,2.09-6.22,3.13-18.65,3.13-9.15,0-14.78-.37-16.91-1.1-1.16-.42-1.9-1.38-2.2-2.9-.61-3.03-.81-8.07-.61-15.13-12.39-3.19-22.22-9.93-29.49-20.22-7.08-9.98-10.61-21.69-10.61-35.12,0-16.25,5.05-29.92,15.16-41C122.22,5.67,135.19,0,150.81,0s28.46,5.7,38.82,17.09c10.16,11.13,15.24,24.77,15.24,40.92Zm-28.74-.16c0-8.05-2.25-14.76-6.75-20.15-4.75-5.64-10.94-8.47-18.58-8.47s-14.13,2.8-18.73,8.39c-4.4,5.28-6.6,12.07-6.6,20.38s2.15,15.26,6.45,20.38c4.5,5.44,10.79,8.15,18.88,8.15s14.08-2.8,18.73-8.39c4.4-5.33,6.6-12.1,6.6-20.3Z"/>
    </g>
  </g>
</svg>