<?xml version="1.0" encoding="UTF-8"?>
<svg id="Layer_2" data-name="Layer 2" xmlns="http://www.w3.org/2000/svg" viewBox="0 0 128.76 121.01">
  <defs>
    <style>
      .cls-1 {
        fill: #f15c67;
      }
    </style>
  </defs>
  <g id="Layer_1-2" data-name="Layer 1">
    <g>
      <g>
        <path class="cls-1" d="M82.63,110.88c-.61,3.14-2.33,5.5-5.14,7.06-2.81,1.57-6.19,1.97-10.14,1.2-3.82-.75-6.73-2.35-8.73-4.79-2-2.45-2.69-5.24-2.07-8.38,.64-3.25,2.41-5.69,5.34-7.33,2.92-1.63,6.29-2.07,10.12-1.33,3.76,.73,6.63,2.37,8.61,4.9,1.98,2.53,2.65,5.42,2.01,8.67ZM126.72,37.54c-1.59,8.16-7.46,14.88-17.6,20.16-3.08,1.46-6.17,2.94-9.26,4.46-4.28,2.25-7.93,4.94-10.95,8.07-1.4,1.5-3.54,5.66-6.44,12.47-2.44,5.82-6.23,8.22-11.37,7.22-5.77-1.13-8-5-6.71-11.61,1.07-5.46,3.81-10.76,8.24-15.9,4.43-5.14,9.53-8.98,15.32-11.51,7.13-3.13,11.8-5.45,13.99-6.97,3.7-2.59,5.94-5.85,6.7-9.76,.81-4.13-.39-7.93-3.59-11.39-3.21-3.46-7.82-5.77-13.85-6.95-4.02-.79-8.6-.21-13.74,1.74-5.14,1.94-8.56,2.75-10.25,2.42-2.01-.39-3.59-1.46-4.75-3.2-1.16-1.74-1.53-3.66-1.13-5.76,.7-3.58,4.18-6.25,10.45-8,6.76-1.94,14.52-2.06,23.3-.34,11.35,2.21,19.87,6.48,25.56,12.8,5.7,6.32,7.73,13.67,6.09,22.04Z"/>
        <path class="cls-1" d="M75.02,120.53c-2.39,.62-5.05,.65-7.96,.08-4.16-.81-7.39-2.6-9.6-5.32-2.28-2.8-3.08-6.03-2.38-9.62,.72-3.69,2.77-6.5,6.08-8.35,3.23-1.8,6.97-2.3,11.14-1.49,4.11,.8,7.3,2.64,9.5,5.45,2.25,2.88,3.02,6.21,2.31,9.89-.7,3.58-2.68,6.3-5.88,8.09-1,.56-2.07,.98-3.2,1.28Zm-9.67-21.69c-.96,.25-1.87,.62-2.74,1.1-2.54,1.42-4.04,3.48-4.59,6.3-.53,2.71,.05,5.05,1.76,7.15,1.76,2.16,4.4,3.6,7.85,4.27,3.57,.7,6.64,.35,9.12-1.03,2.43-1.35,3.87-3.33,4.4-6.04h0c.55-2.83-.01-5.27-1.72-7.46-1.77-2.26-4.29-3.68-7.72-4.35-2.33-.46-4.44-.44-6.36,.06Zm10.51-7.53c-1.77,.46-3.52,.38-5.05,.08-3.31-.65-5.67-2.15-7.01-4.47-1.3-2.25-1.6-5.24-.88-8.9,1.11-5.69,4-11.27,8.58-16.59,4.55-5.29,9.89-9.29,15.85-11.91,7.01-3.07,11.63-5.37,13.73-6.82,3.4-2.38,5.39-5.27,6.09-8.82,.72-3.67-.34-6.96-3.22-10.08-2.97-3.2-7.36-5.39-13.04-6.5-3.72-.73-8.07-.16-12.92,1.67-7.26,2.75-9.8,2.73-11.07,2.49-2.41-.47-4.33-1.76-5.71-3.84-1.38-2.07-1.83-4.38-1.35-6.87,.81-4.17,4.69-7.25,11.51-9.16,6.96-1.99,15.02-2.12,23.99-.37,11.62,2.27,20.5,6.73,26.39,13.27,6,6.66,8.17,14.51,6.45,23.33h0c-1.68,8.59-7.86,15.72-18.38,21.2-3.12,1.48-6.23,2.97-9.3,4.47-4.08,2.15-7.63,4.77-10.53,7.77-.86,.92-2.63,3.77-6.14,12.02-2.12,5.06-5.07,7.27-7.98,8.02Zm4.92-76.37c3.88-1.01,7.46-1.2,10.69-.57,6.32,1.23,11.25,3.72,14.66,7.4,3.53,3.81,4.87,8.08,3.97,12.69-.84,4.29-3.3,7.89-7.31,10.7-2.3,1.59-6.95,3.92-14.24,7.11-5.55,2.43-10.52,6.17-14.78,11.12-4.24,4.92-6.9,10.03-7.91,15.2-.57,2.93-.39,5.22,.54,6.82,.9,1.56,2.53,2.54,4.99,3.03,4.44,.87,7.52-1.14,9.69-6.33,3.04-7.15,5.17-11.25,6.72-12.92,3.13-3.25,6.94-6.06,11.35-8.38,3.12-1.52,6.24-3.03,9.32-4.49,9.62-5.01,15.28-11.44,16.77-19.09h0c1.55-7.96-.32-14.75-5.73-20.75-5.45-6.04-13.77-10.19-24.74-12.33-8.5-1.66-16.1-1.55-22.6,.31-5.65,1.58-8.81,3.88-9.39,6.85-.33,1.71-.04,3.23,.9,4.64,.94,1.41,2.18,2.25,3.79,2.56,.8,.16,3.08,.06,9.43-2.35,1.32-.5,2.61-.91,3.87-1.24Z"/>
      </g>
      <g>
        <path class="cls-1" d="M43.31,60.26c.34,1.01,.24,1.97-.32,2.89-.55,.92-1.46,1.59-2.73,2.02-1.23,.42-2.33,.43-3.31,.06-.98-.38-1.64-1.07-1.98-2.08-.35-1.04-.24-2.04,.33-3,.57-.95,1.48-1.64,2.7-2.05,1.21-.41,2.31-.41,3.3,0,.99,.4,1.66,1.13,2.01,2.17Zm.63-28.46c.89,2.62,.3,5.53-1.76,8.73-.65,.93-1.3,1.87-1.94,2.82-.86,1.36-1.47,2.74-1.83,4.14-.16,.66-.09,2.22,.2,4.67,.26,2.08-.44,3.4-2.09,3.96-1.85,.63-3.14-.12-3.86-2.24-.59-1.75-.67-3.74-.24-5.95,.43-2.22,1.27-4.17,2.52-5.85,1.54-2.08,2.51-3.52,2.89-4.32,.64-1.36,.75-2.67,.32-3.93-.45-1.33-1.42-2.23-2.92-2.7-1.5-.47-3.21-.38-5.15,.28-1.29,.44-2.52,1.36-3.68,2.77-1.16,1.41-2.02,2.21-2.56,2.39-.65,.22-1.28,.17-1.9-.14-.62-.31-1.05-.8-1.28-1.48-.39-1.15,.18-2.49,1.7-4.04,1.63-1.68,3.86-2.99,6.67-3.95,3.64-1.23,6.81-1.41,9.5-.52,2.69,.88,4.49,2.67,5.4,5.36Z"/>
        <path class="cls-1" d="M42.71,64.3c-.59,.57-1.35,1.02-2.29,1.34-1.34,.45-2.56,.47-3.65,.05-1.12-.43-1.89-1.23-2.28-2.39-.4-1.18-.27-2.33,.38-3.41,.63-1.05,1.63-1.82,2.97-2.27,1.32-.45,2.55-.44,3.64,0,1.13,.46,1.9,1.29,2.3,2.47,.39,1.15,.27,2.26-.36,3.31-.2,.33-.44,.63-.71,.9Zm-6.37-4.67c-.24,.23-.44,.49-.61,.77-.5,.83-.59,1.67-.29,2.58,.29,.87,.85,1.45,1.69,1.77,.86,.33,1.86,.31,2.97-.06,1.15-.39,1.98-1,2.46-1.8,.48-.79,.57-1.6,.27-2.47h0c-.31-.91-.87-1.52-1.73-1.87-.88-.36-1.85-.36-2.95,.02-.75,.25-1.35,.61-1.83,1.07Zm1.79-3.91c-.43,.42-.95,.69-1.45,.86-1.06,.36-1.99,.32-2.76-.13-.75-.43-1.33-1.25-1.72-2.42-.62-1.83-.71-3.92-.26-6.21,.44-2.28,1.32-4.32,2.61-6.06,1.52-2.05,2.47-3.47,2.84-4.24,.59-1.25,.69-2.41,.3-3.55-.4-1.18-1.25-1.96-2.6-2.38-1.39-.43-3.01-.34-4.84,.28-1.2,.4-2.36,1.28-3.46,2.62-1.64,1.99-2.38,2.41-2.79,2.55-.77,.26-1.54,.21-2.28-.17-.74-.37-1.25-.96-1.52-1.76-.45-1.34,.16-2.87,1.81-4.55,1.68-1.72,3.99-3.09,6.87-4.07,3.73-1.26,7.03-1.44,9.81-.53,2.83,.93,4.76,2.84,5.72,5.67h0c.93,2.76,.33,5.84-1.81,9.16-.66,.94-1.31,1.89-1.95,2.83-.82,1.29-1.42,2.64-1.76,3.98-.1,.41-.14,1.52,.21,4.48,.22,1.81-.27,2.94-.98,3.64Zm-11.19-22.87c.95-.93,1.96-1.58,2.99-1.93,2.03-.69,3.86-.78,5.46-.28,1.65,.52,2.74,1.53,3.24,3.01,.47,1.38,.35,2.82-.35,4.3-.4,.84-1.36,2.28-2.94,4.41-1.2,1.62-2.02,3.52-2.43,5.65-.41,2.12-.34,4.04,.23,5.7,.32,.94,.75,1.57,1.28,1.88,.52,.3,1.15,.32,1.94,.05,1.43-.48,1.98-1.57,1.76-3.43-.3-2.57-.36-4.1-.19-4.84,.37-1.46,1.01-2.9,1.89-4.29,.65-.95,1.3-1.9,1.95-2.83,1.95-3.04,2.52-5.83,1.69-8.28h0c-.87-2.56-2.53-4.21-5.08-5.05-2.57-.85-5.66-.67-9.18,.52-2.73,.92-4.91,2.21-6.48,3.82-1.37,1.39-1.9,2.58-1.58,3.53,.19,.55,.52,.94,1.03,1.19,.5,.25,1,.29,1.52,.11,.26-.09,.9-.49,2.34-2.24,.3-.36,.6-.69,.91-1Z"/>
      </g>
      <g>
        <path class="cls-1" d="M20.84,103.6c.57,.2,.97,.58,1.19,1.15,.22,.57,.21,1.21-.04,1.93-.24,.7-.61,1.2-1.12,1.51-.51,.31-1.05,.37-1.62,.17-.59-.2-1-.6-1.23-1.19-.23-.59-.23-1.23,.01-1.93,.24-.69,.62-1.18,1.14-1.49,.53-.31,1.08-.36,1.68-.15Zm-12.6-10.16c1.49,.51,2.59,1.78,3.32,3.82,.19,.62,.39,1.23,.6,1.85,.31,.86,.72,1.61,1.23,2.26,.24,.3,.97,.81,2.17,1.53,1.03,.61,1.38,1.38,1.06,2.32-.36,1.05-1.14,1.37-2.35,.96-.99-.34-1.92-.99-2.77-1.96-.85-.96-1.44-2.02-1.76-3.17-.4-1.42-.72-2.35-.94-2.8-.39-.76-.94-1.26-1.66-1.51-.75-.26-1.5-.13-2.23,.38-.73,.51-1.28,1.32-1.66,2.42-.25,.73-.26,1.61-.03,2.62,.23,1.01,.29,1.67,.19,1.98-.13,.37-.37,.64-.72,.81-.36,.17-.73,.19-1.11,.06-.65-.22-1.06-.95-1.23-2.16-.19-1.32,0-2.77,.54-4.37,.71-2.07,1.73-3.56,3.06-4.46,1.33-.9,2.76-1.09,4.29-.57Z"/>
        <path class="cls-1" d="M22.46,105.28c.05,.46,0,.96-.19,1.49-.26,.76-.68,1.32-1.25,1.66-.58,.35-1.21,.42-1.86,.2-.67-.23-1.15-.69-1.41-1.35-.25-.65-.25-1.37,0-2.13,.26-.75,.68-1.3,1.27-1.64,.6-.35,1.24-.41,1.91-.18,.65,.22,1.11,.66,1.36,1.31,.08,.2,.13,.41,.16,.63Zm-4.31,1.25c.02,.19,.07,.37,.14,.54,.2,.51,.55,.85,1.06,1.02,.49,.17,.95,.12,1.39-.15,.45-.27,.79-.73,1-1.36,.22-.65,.24-1.24,.04-1.74-.19-.49-.52-.81-1.02-.98h0c-.52-.18-.99-.13-1.44,.13-.47,.27-.8,.71-1.02,1.33-.15,.43-.2,.82-.15,1.19Zm-1.14-2.16c.04,.34-.02,.67-.12,.95-.21,.6-.55,1.01-1.02,1.2-.45,.19-1.02,.16-1.69-.06-1.04-.36-2.01-1.04-2.89-2.04-.87-.99-1.49-2.09-1.82-3.28-.39-1.39-.7-2.32-.92-2.75-.36-.7-.85-1.15-1.49-1.37-.67-.23-1.31-.12-1.97,.34-.68,.47-1.2,1.24-1.56,2.27-.23,.68-.24,1.51-.02,2.46,.33,1.43,.26,1.91,.18,2.14-.15,.44-.44,.77-.87,.97-.42,.21-.87,.23-1.32,.07-.76-.26-1.24-1.07-1.42-2.39-.19-1.36,0-2.87,.55-4.51,.73-2.12,1.79-3.67,3.17-4.6,1.4-.95,2.93-1.16,4.54-.6h0c1.57,.54,2.74,1.88,3.5,3.99,.2,.62,.4,1.25,.6,1.86,.3,.82,.7,1.55,1.18,2.17,.15,.18,.64,.59,2.09,1.46,.89,.53,1.23,1.14,1.3,1.7Zm-14.18-2.9c-.09-.75-.03-1.43,.17-2.02,.39-1.15,.99-2.01,1.77-2.56,.81-.56,1.64-.7,2.48-.41,.78,.27,1.39,.82,1.82,1.65,.24,.47,.55,1.4,.96,2.85,.31,1.1,.88,2.13,1.7,3.06,.81,.92,1.7,1.55,2.64,1.88,.53,.18,.97,.21,1.29,.08,.31-.13,.54-.41,.7-.86,.28-.81-.02-1.44-.93-1.98-1.26-.75-1.97-1.26-2.25-1.59-.53-.67-.96-1.46-1.28-2.34-.21-.62-.41-1.25-.6-1.86-.69-1.93-1.75-3.16-3.14-3.64h0c-1.45-.5-2.77-.32-4.04,.54-1.27,.86-2.27,2.32-2.95,4.32-.53,1.55-.71,2.98-.53,4.24,.15,1.1,.5,1.75,1.04,1.94,.31,.11,.6,.09,.89-.05,.29-.14,.48-.35,.58-.64,.05-.15,.09-.58-.2-1.83-.06-.26-.1-.51-.13-.76Z"/>
      </g>
    </g>
  </g>
</svg>